<svg xmlns="http://www.w3.org/2000/svg" viewBox="0 0 200.31 67.8"><defs><style>.cls-1,.cls-2{fill:#086390;}.cls-1{fill-rule:evenodd;}</style></defs><title>таб_русс_син</title><g id="Слой_2" data-name="Слой 2"><g id="Слой_1-2" data-name="Слой 1"><path class="cls-1" d="M28.4,21.09a20.35,20.35,0,0,1,5.47-10.28A20.34,20.34,0,0,1,39.34,21.1C59.46,18.35,56.9,39,50.47,44.64c-1.75-9.41-8.39-11.18-11.7-8.74-3,2.17-2.7,8.16,5.34,14.53A105.15,105.15,0,0,1,33.9,57a103.88,103.88,0,0,1-10.21-6.56C31.73,44.06,32,38.07,29,35.9c-3.32-2.44-10-.67-11.7,8.74C10.9,39,8.34,18.39,28.4,21.09M33.9,0A33.9,33.9,0,1,1,0,33.9,33.9,33.9,0,0,1,33.9,0"/><path class="cls-2" d="M200.22,33.35a1.89,1.89,0,0,1-.1.67,1.09,1.09,0,0,1-.54.52,8.53,8.53,0,0,1-1.52.56,15.05,15.05,0,0,1-1.65.33c-.56.09-1.13.15-1.7.19s-1.12.06-1.63.06a12.38,12.38,0,0,1-3.45-.4,6.07,6.07,0,0,1-2.19-1.09,3.83,3.83,0,0,1-1.17-1.62,6.05,6.05,0,0,1-.33-2,5.73,5.73,0,0,1,.4-2.19,4.63,4.63,0,0,1,1.19-1.74,5.61,5.61,0,0,1,2-1.15,9.06,9.06,0,0,1,2.87-.41h3.37v-.49a3.77,3.77,0,0,0-.09-.83,1.41,1.41,0,0,0-.39-.69,2.09,2.09,0,0,0-.81-.47,4.06,4.06,0,0,0-1.38-.19c-.3,0-.65,0-1,.05s-.78.07-1.17.12-.76.11-1.13.19a8.41,8.41,0,0,0-1,.23.82.82,0,0,1-.55,0,.57.57,0,0,1-.22-.4l-.49-2.15a.68.68,0,0,1,0-.47.51.51,0,0,1,.32-.23,14.3,14.3,0,0,1,2.9-.71,21.9,21.9,0,0,1,3-.21c2.22,0,3.86.47,4.9,1.42a5.44,5.44,0,0,1,1.56,4.22Zm-23,1.38a.7.7,0,0,1-.12.5,1,1,0,0,1-.59.11h-3c-.47,0-.71-.2-.71-.61V24a8.27,8.27,0,0,1,.2-1.8,3.77,3.77,0,0,1,.74-1.53,3.53,3.53,0,0,1,1.49-1,6.61,6.61,0,0,1,2.48-.39h7.2a.61.61,0,0,1,.48.14,1,1,0,0,1,.11.57v2.21a.84.84,0,0,1-.13.53.51.51,0,0,1-.46.17H179a1.84,1.84,0,0,0-1.43.43,1.94,1.94,0,0,0-.35,1.23Zm-8.75-15.49a1.85,1.85,0,0,1,1.45.45,2.14,2.14,0,0,1,.39,1.43V34.76a.6.6,0,0,1-.14.47.94.94,0,0,1-.57.11h-3.1a.77.77,0,0,1-.56-.14.62.62,0,0,1-.14-.47V22.86H162l-.09,1.6c-.11,1.78-.24,3.31-.4,4.6a12.63,12.63,0,0,1-.83,3.29A5.56,5.56,0,0,1,159,34.57,8.43,8.43,0,0,1,156.19,36a.78.78,0,0,1-.61,0,.81.81,0,0,1-.31-.41l-.83-2.09a1,1,0,0,1-.1-.56c0-.12.18-.25.44-.39a4.88,4.88,0,0,0,1.34-.83,3.28,3.28,0,0,0,.82-1.31,10.22,10.22,0,0,0,.51-2.29c.12-.95.23-2.2.34-3.75l.21-3.35a2.1,2.1,0,0,1,.48-1.41,2,2,0,0,1,1.42-.4ZM152,34.73a.7.7,0,0,1-.12.5.86.86,0,0,1-.55.11h-3.07c-.45,0-.67-.2-.67-.61V19.83c0-.39.22-.59.67-.59h3.07a.94.94,0,0,1,.55.11.66.66,0,0,1,.12.48Zm-18.66.61a2,2,0,0,1-1.57-.47,2.14,2.14,0,0,1-.36-1.31V19.83c0-.39.22-.59.67-.59h3.1a.94.94,0,0,1,.55.11.66.66,0,0,1,.12.48v4.44h3.8a8.27,8.27,0,0,1,3.55.63,5.41,5.41,0,0,1,2,1.52,4.37,4.37,0,0,1,.85,1.82,9.22,9.22,0,0,1,.16,1.55,5.27,5.27,0,0,1-1.73,4,6,6,0,0,1-1.91,1.16,6.52,6.52,0,0,1-2.4.43Zm8.28-5.61a2.11,2.11,0,0,0-.54-1.46,2.08,2.08,0,0,0-1.61-.59h-3.62v4.17h3.59a2.39,2.39,0,0,0,1.07-.22,1.94,1.94,0,0,0,.68-.53,2,2,0,0,0,.33-.69,2.54,2.54,0,0,0,.1-.68m-18.79-9.32a6.34,6.34,0,0,1,2.88.58,5.11,5.11,0,0,1,1.9,1.6A6.28,6.28,0,0,1,128.69,25,12,12,0,0,1,129,27.8a9.91,9.91,0,0,1-.41,2.87,6.73,6.73,0,0,1-1.36,2.49,7.09,7.09,0,0,1-2.47,1.8,9.4,9.4,0,0,1-3.76.72,9.5,9.5,0,0,1-4-.72A5.76,5.76,0,0,1,114.64,33a6.56,6.56,0,0,1-1.09-2.74,18.82,18.82,0,0,1-.26-3.24,42.44,42.44,0,0,1,.24-4.69,12.67,12.67,0,0,1,1-3.81,7.94,7.94,0,0,1,2.11-2.84A8.89,8.89,0,0,1,120.25,14c.71-.2,1.56-.4,2.56-.6l3.17-.62a.88.88,0,0,1,.41,0c.12,0,.19.15.23.37l.65,2.58c.08.26.07.43,0,.5a1.38,1.38,0,0,1-.31.17c-.72.19-1.34.33-1.87.43s-1.06.22-1.59.34a15.11,15.11,0,0,0-2.37.66,4.83,4.83,0,0,0-1.48.84,3.06,3.06,0,0,0-.85,1.21,6.72,6.72,0,0,0-.36,1.77l.06,0,.06.06a7,7,0,0,1,2.19-1,8.67,8.67,0,0,1,2.13-.28M121,32a3.42,3.42,0,0,0,1.63-.35,2.77,2.77,0,0,0,1-.94,3.85,3.85,0,0,0,.52-1.29,6.9,6.9,0,0,0,.15-1.44,7.9,7.9,0,0,0-.12-1.36,3.73,3.73,0,0,0-.44-1.24,2.73,2.73,0,0,0-.88-.91,2.67,2.67,0,0,0-1.44-.35,6.42,6.42,0,0,0-1.68.24,6.27,6.27,0,0,0-1.6.68c-.08.65-.13,1.2-.15,1.64s0,.89,0,1.36a7.57,7.57,0,0,0,.14,1.55,3.71,3.71,0,0,0,.47,1.26,2.33,2.33,0,0,0,.92.84A3.15,3.15,0,0,0,121,32m-10.36,1.38a1.68,1.68,0,0,1-.11.67,1.1,1.1,0,0,1-.53.52,8.83,8.83,0,0,1-1.52.56,14.77,14.77,0,0,1-1.66.33c-.56.09-1.13.15-1.7.19s-1.11.06-1.62.06a12.38,12.38,0,0,1-3.45-.4,6.07,6.07,0,0,1-2.19-1.09,3.75,3.75,0,0,1-1.17-1.62,6.06,6.06,0,0,1-.34-2,5.93,5.93,0,0,1,.4-2.19A4.77,4.77,0,0,1,98,26.63a5.61,5.61,0,0,1,2-1.15,9,9,0,0,1,2.86-.41h3.38v-.49a3.77,3.77,0,0,0-.1-.83,1.47,1.47,0,0,0-.38-.69,2.09,2.09,0,0,0-.81-.47,4.06,4.06,0,0,0-1.38-.19c-.31,0-.66,0-1,.05s-.78.07-1.17.12-.77.11-1.13.19a8.41,8.41,0,0,0-1,.23.86.86,0,0,1-.56,0,.61.61,0,0,1-.21-.4L98,20.44A.7.7,0,0,1,98,20a.55.55,0,0,1,.32-.23,14.46,14.46,0,0,1,2.9-.71,22,22,0,0,1,3-.21q3.35,0,4.91,1.42a5.44,5.44,0,0,1,1.56,4.22ZM106.2,28h-2.42a6.16,6.16,0,0,0-.92.07,2.32,2.32,0,0,0-.9.29,1.82,1.82,0,0,0-.69.66,2.14,2.14,0,0,0-.28,1.16,1.59,1.59,0,0,0,.72,1.5,3.76,3.76,0,0,0,2,.43h.49l.66-.06c.24,0,.48-.08.72-.13a3.1,3.1,0,0,0,.67-.2ZM90.86,22.86V34.73a.65.65,0,0,1-.14.5.94.94,0,0,1-.57.11h-3c-.47,0-.71-.2-.71-.61V22.86H82.06c-.41,0-.61-.22-.61-.67V20a1,1,0,0,1,.1-.57.67.67,0,0,1,.51-.14H95.31a.68.68,0,0,1,.49.14.92.92,0,0,1,.12.57v2.24c0,.45-.21.67-.61.67ZM195.75,28h-2.42a6,6,0,0,0-.92.07,2.37,2.37,0,0,0-.91.29,2,2,0,0,0-.69.66,2.14,2.14,0,0,0-.27,1.16,1.59,1.59,0,0,0,.72,1.5,3.74,3.74,0,0,0,1.94.43h.49l.66-.06c.24,0,.48-.08.72-.13a3.38,3.38,0,0,0,.68-.2Z"/><path class="cls-2" d="M196.72,46.37l.13-.22a.58.58,0,0,1,.23-.17,1,1,0,0,1,.38-.06h1.22v1.34h-1.19a.91.91,0,0,1-.61-.18.63.63,0,0,1-.2-.49Zm2,4.09,0,.14s.09,0,.19,0h1.17c.15,0,.23-.06.23-.18V45.1a.47.47,0,0,0-.19-.33.78.78,0,0,0-.45-.11h-2.55a2.65,2.65,0,0,0-.87.13,1.94,1.94,0,0,0-.66.38,1.67,1.67,0,0,0-.55,1.27,1.83,1.83,0,0,0,.22.91,1.31,1.31,0,0,0,.81.6v0a1.1,1.1,0,0,0-.62.38,2.37,2.37,0,0,0-.26.53c-.08.26-.17.52-.25.78s-.17.51-.25.77v.09c0,.08.05.12.17.12H196l.22,0a.27.27,0,0,0,.15-.2l.21-.68c.08-.23.14-.46.2-.68a.88.88,0,0,1,.38-.54,1.37,1.37,0,0,1,.65-.13h.89ZM188.34,50a.81.81,0,0,0,.12.48c.08.11.25.16.52.16h.54a.92.92,0,0,0,.41-.07.88.88,0,0,0,.29-.31l.54-.82.52-.83c.17-.26.33-.52.49-.78s.32-.53.49-.79h.06v3.42l0,.15.18,0h1.23l.16,0,0-.14V45.29a.6.6,0,0,0-.16-.5.69.69,0,0,0-.47-.13h-.81l-.17.06-.14.11-.15.19-.64,1.06-.49.78-.14.21-.16.26-.23.39c-.1.15-.21.35-.36.59H190V44.84l0-.15a.29.29,0,0,0-.17,0h-1.23q-.21,0-.21.18Zm-.67-4c.15,0,.23-.08.23-.25v-.83a.32.32,0,0,0-.05-.21s-.09-.05-.18-.05h-4.92c-.1,0-.17,0-.19.05s0,.1,0,.21v.83c0,.17.07.25.23.25h1.61v4.41c0,.15.09.23.27.23h1.12a.39.39,0,0,0,.22,0,.27.27,0,0,0,.05-.19V46Zm-7.46,2.93a1.21,1.21,0,0,1-.93.39l-.42,0a3.13,3.13,0,0,1-.54-.1V46.08a2.68,2.68,0,0,1,.46-.09,4.12,4.12,0,0,1,.42,0,2,2,0,0,1,.57.08,1,1,0,0,1,.44.28,1.24,1.24,0,0,1,.27.51,3,3,0,0,1,.09.79,1.93,1.93,0,0,1-.36,1.32m-1.89,1.67a5,5,0,0,0,.66.11,6.4,6.4,0,0,0,.64,0,2.78,2.78,0,0,0,1.19-.24,2.42,2.42,0,0,0,.84-.67,2.7,2.7,0,0,0,.49-1,4.2,4.2,0,0,0,.16-1.2,4.8,4.8,0,0,0-.15-1.22,2.57,2.57,0,0,0-.48-1,2.35,2.35,0,0,0-.89-.67,3.41,3.41,0,0,0-1.36-.24,8.37,8.37,0,0,0-1.29.1,4.43,4.43,0,0,0-1.23.36.45.45,0,0,0-.19.15l0,.2v7.43l.06.16.18,0h1.18a.43.43,0,0,0,.2,0l0-.16Zm-4.38-1.3a1,1,0,0,1-.25.08l-.27,0-.25,0H173a1.37,1.37,0,0,1-.72-.16.58.58,0,0,1-.27-.55.8.8,0,0,1,.1-.44.74.74,0,0,1,.26-.24.76.76,0,0,1,.34-.11,2,2,0,0,1,.34,0h.9Zm1.65-2.71A2,2,0,0,0,175,45a2.58,2.58,0,0,0-1.81-.53,7.16,7.16,0,0,0-1.13.08,5.4,5.4,0,0,0-1.07.26l-.12.08v.18l.19.8.08.15a.32.32,0,0,0,.2,0l.36-.09.43-.07.43,0a2.68,2.68,0,0,1,.39,0,1.46,1.46,0,0,1,.51.07.72.72,0,0,1,.3.17.55.55,0,0,1,.14.26,1.06,1.06,0,0,1,0,.31v.18H172.7a3.37,3.37,0,0,0-1.07.15,2.27,2.27,0,0,0-.75.43,1.83,1.83,0,0,0-.44.65,2.09,2.09,0,0,0-.15.81,2,2,0,0,0,.13.75,1.32,1.32,0,0,0,.43.6,2.2,2.2,0,0,0,.81.41,5,5,0,0,0,1.28.14c.19,0,.39,0,.6,0a6.07,6.07,0,0,0,.63-.07,6.18,6.18,0,0,0,.62-.12,3.09,3.09,0,0,0,.56-.21.41.41,0,0,0,.2-.19.62.62,0,0,0,0-.25Zm-6.14-1.3a.73.73,0,0,0-.13-.45.6.6,0,0,0-.52-.18h-4.22a.6.6,0,0,0-.52.18.73.73,0,0,0-.13.45v5.13c0,.15.08.22.24.22h1.17c.11,0,.18,0,.2,0l0-.17V46h2.19v4.42c0,.15.08.22.24.22h1.19a.3.3,0,0,0,.2,0l0-.17ZM156,46.37l.13-.22a.58.58,0,0,1,.23-.17,1,1,0,0,1,.38-.06H158v1.34h-1.19a.91.91,0,0,1-.61-.18.63.63,0,0,1-.2-.49Zm2,4.09,0,.14s.09,0,.19,0h1.17c.15,0,.23-.06.23-.18V45.1a.47.47,0,0,0-.19-.33.78.78,0,0,0-.45-.11h-2.55a2.65,2.65,0,0,0-.87.13,1.94,1.94,0,0,0-.66.38,1.67,1.67,0,0,0-.55,1.27,1.83,1.83,0,0,0,.22.91,1.31,1.31,0,0,0,.81.6v0a1.1,1.1,0,0,0-.62.38,2.37,2.37,0,0,0-.26.53c-.08.26-.17.52-.25.78s-.17.51-.25.77v.09c0,.08.05.12.17.12h1.14l.22,0a.27.27,0,0,0,.15-.2l.21-.68c.08-.23.14-.46.2-.68a.88.88,0,0,1,.38-.54,1.37,1.37,0,0,1,.65-.13H158Zm-6.36-1.16a1,1,0,0,1-.25.08l-.27,0-.24,0h-.19a1.37,1.37,0,0,1-.72-.16.58.58,0,0,1-.27-.55.89.89,0,0,1,.1-.44.74.74,0,0,1,.26-.24.8.8,0,0,1,.34-.11,2,2,0,0,1,.34,0h.9Zm1.65-2.71a2,2,0,0,0-.58-1.56,2.58,2.58,0,0,0-1.81-.53,7,7,0,0,0-1.12.08,5.33,5.33,0,0,0-1.08.26l-.12.08v.18l.18.8.08.15a.32.32,0,0,0,.2,0l.37-.09.42-.07.43,0a2.82,2.82,0,0,1,.39,0,1.46,1.46,0,0,1,.51.07.72.72,0,0,1,.3.17.57.57,0,0,1,.15.26,1.55,1.55,0,0,1,0,.31v.18h-1.25a3.41,3.41,0,0,0-1.07.15,2.12,2.12,0,0,0-.74.43,1.73,1.73,0,0,0-.45.65,2.09,2.09,0,0,0-.15.81,2,2,0,0,0,.13.75,1.4,1.4,0,0,0,.43.6,2.28,2.28,0,0,0,.81.41,5.1,5.1,0,0,0,1.28.14c.19,0,.39,0,.61,0s.42,0,.63-.07.41-.07.61-.12a3.09,3.09,0,0,0,.56-.21c.11-.06.18-.12.2-.19a.62.62,0,0,0,0-.25Zm-9.56,3.87V48.1h.65a1.11,1.11,0,0,1,.6.14.85.85,0,0,1,.36.51l.53,1.75.09.12.11,0h1.31c.09,0,.14,0,.15-.08v-.13l-.59-2a3.59,3.59,0,0,0-.12-.35,1.41,1.41,0,0,0-.18-.29,1.05,1.05,0,0,0-.27-.24,1.81,1.81,0,0,0-.41-.17l0,0a1.16,1.16,0,0,0,.53-.42,2.27,2.27,0,0,0,.28-.63l.42-1.49v-.13l-.13-.06h-1.27l-.11,0-.08.12-.4,1.26a1.08,1.08,0,0,1-.4.62,1.14,1.14,0,0,1-.54.14h-.54v-2l0-.16-.16,0h-1.25l-.15,0-.05.16v5.62l.05.15.15,0h1.25l.16,0Zm-4.92-1.3a1,1,0,0,1-.39-.33,1.26,1.26,0,0,1-.2-.52,3.2,3.2,0,0,1-.06-.65,2.67,2.67,0,0,1,.07-.64,1.47,1.47,0,0,1,.21-.53,1.19,1.19,0,0,1,.38-.36,1.06,1.06,0,0,1,.58-.14,2.64,2.64,0,0,1,.55.06,4.43,4.43,0,0,1,.58.14.58.58,0,0,0,.23,0l.12-.14.32-.88a.32.32,0,0,0,0-.19s-.07-.08-.16-.13a4.34,4.34,0,0,0-.86-.29,5,5,0,0,0-.94-.09,3.14,3.14,0,0,0-1.18.21,2.44,2.44,0,0,0-.9.63,2.86,2.86,0,0,0-.56,1,3.87,3.87,0,0,0-.2,1.31,3.41,3.41,0,0,0,.69,2.33,2.6,2.6,0,0,0,2,.77,6.75,6.75,0,0,0,1-.09,3.57,3.57,0,0,0,1.07-.37l.13-.14-.05-.18-.32-.86-.1-.14a.33.33,0,0,0-.19,0l-.6.18a3.38,3.38,0,0,1-.72.08,1.43,1.43,0,0,1-.62-.12M133.69,46a.73.73,0,0,1,.3.24.9.9,0,0,1,.17.37,2.34,2.34,0,0,1,.05.47h-2.13a1.39,1.39,0,0,1,.34-.84,1,1,0,0,1,.77-.34,1.2,1.2,0,0,1,.5.1M132,44.72a2.51,2.51,0,0,0-.89.62,3,3,0,0,0-.57,1,4.2,4.2,0,0,0-.2,1.34A3.25,3.25,0,0,0,131,50a2.94,2.94,0,0,0,2.21.74,5,5,0,0,0,1-.12,3,3,0,0,0,1-.39l.12-.11,0-.16-.36-.82-.1-.11a.39.39,0,0,0-.19,0,3.87,3.87,0,0,1-.63.2,2.68,2.68,0,0,1-.68.08,2.26,2.26,0,0,1-.53-.06.91.91,0,0,1-.42-.2,1,1,0,0,1-.29-.39,1.34,1.34,0,0,1-.12-.6H135a.85.85,0,0,0,.63-.22,1.1,1.1,0,0,0,.23-.81,2.57,2.57,0,0,0-.67-1.91,2.72,2.72,0,0,0-2-.66,3.13,3.13,0,0,0-1.17.21m-2.5,5.74V44.84l0-.15-.18,0H128c-.13,0-.2.06-.2.18v2.35a3.86,3.86,0,0,1-.49.09l-.46,0a2.54,2.54,0,0,1-.52-.05.59.59,0,0,1-.34-.18.66.66,0,0,1-.19-.34,2.75,2.75,0,0,1,0-.56V44.84l0-.15-.17,0h-1.24c-.14,0-.2.06-.2.18v1.5a3.5,3.5,0,0,0,.12,1,1.62,1.62,0,0,0,.42.73,1.77,1.77,0,0,0,.77.45,3.72,3.72,0,0,0,1.19.16,4.18,4.18,0,0,0,.59,0,6,6,0,0,0,.61-.09v2c0,.12.07.18.2.18h1.23l.18,0ZM117.69,50a.81.81,0,0,0,.12.48c.08.11.25.16.51.16h.54a.89.89,0,0,0,.41-.07,1,1,0,0,0,.3-.31l.53-.82c.18-.28.35-.56.53-.83s.33-.52.48-.78.32-.53.5-.79h0v3.42l0,.15.17,0h1.23l.16,0,0-.14V45.29a.63.63,0,0,0-.16-.5.74.74,0,0,0-.48-.13h-.8l-.17.06-.14.11-.15.19-.65,1.06c-.18.3-.34.56-.49.78l-.13.21c-.05.07-.1.16-.16.26l-.24.39-.35.59h-.06V44.84l0-.15a.36.36,0,0,0-.18,0h-1.23c-.13,0-.2.06-.2.18ZM117,46c.16,0,.23-.08.23-.25v-.83c0-.11,0-.18,0-.21s-.09-.05-.19-.05h-4.92c-.1,0-.16,0-.19.05a.42.42,0,0,0,0,.21v.83c0,.17.08.25.23.25h1.62v4.41c0,.15.09.23.26.23h1.13c.11,0,.18,0,.21,0a.27.27,0,0,0,0-.19V46Zm-11.23,4a.81.81,0,0,0,.12.48c.08.11.25.16.52.16H107a.89.89,0,0,0,.41-.07,1,1,0,0,0,.3-.31l.53-.82c.18-.28.35-.56.53-.83s.33-.52.48-.78.32-.53.5-.79h0v3.42l0,.15.17,0h1.23l.16,0,0-.14V45.29a.63.63,0,0,0-.16-.5.74.74,0,0,0-.48-.13H110l-.17.06-.14.11-.15.19-.65,1.06c-.18.3-.34.56-.49.78l-.13.21c0,.07-.1.16-.16.26l-.23.39c-.1.15-.22.35-.36.59h-.06V44.84l0-.15a.36.36,0,0,0-.18,0H106c-.13,0-.2.06-.2.18Zm-4.94-5.34a.77.77,0,0,0-.53.14.79.79,0,0,0-.17.53l-.08,1.24c0,.58-.08,1-.13,1.4a3.51,3.51,0,0,1-.19.84,1.21,1.21,0,0,1-.3.49,1.71,1.71,0,0,1-.5.31c-.1.06-.15.1-.17.15a.52.52,0,0,0,0,.21l.31.77.12.15a.24.24,0,0,0,.22,0,3.09,3.09,0,0,0,1.06-.53,2,2,0,0,0,.62-.82,4.8,4.8,0,0,0,.31-1.23q.09-.72.15-1.71l0-.59H103v4.41l0,.18a.36.36,0,0,0,.21,0h1.15a.39.39,0,0,0,.22,0,.26.26,0,0,0,0-.18V45.35a.78.78,0,0,0-.15-.53.68.68,0,0,0-.54-.16Zm-4.07,3.66a1.58,1.58,0,0,1-.21.55,1,1,0,0,1-.9.49,1,1,0,0,1-.89-.44,2.66,2.66,0,0,1-.26-1.3,2.27,2.27,0,0,1,.29-1.25,1,1,0,0,1,.89-.46,1,1,0,0,1,.54.13,1.1,1.1,0,0,1,.35.36,1.43,1.43,0,0,1,.19.55,3.73,3.73,0,0,1,.06.7,3.4,3.4,0,0,1-.06.67m1.06-3a2.71,2.71,0,0,0-2.16-.82,3.21,3.21,0,0,0-1.2.21,2.42,2.42,0,0,0-.9.62,2.64,2.64,0,0,0-.57,1,3.93,3.93,0,0,0-.2,1.32,3.51,3.51,0,0,0,.68,2.3,2.67,2.67,0,0,0,2.17.82,2.71,2.71,0,0,0,2.18-.82,4,4,0,0,0,0-4.61m-5.88,0a.79.79,0,0,0-.12-.45c-.08-.12-.26-.18-.53-.18H87.09a.62.62,0,0,0-.53.18.79.79,0,0,0-.12.45v5.13c0,.15.08.22.24.22h1.17a.28.28,0,0,0,.2,0l0-.17V46h2.19v4.42c0,.15.08.22.24.22H91.7a.32.32,0,0,0,.21,0l0-.17Z"/></g></g></svg>